<svg width="20" height="20" viewBox="0 0 20 20" fill="none" xmlns="http://www.w3.org/2000/svg">
<rect width="20" height="20" rx="10" fill="#58CA6A"/>
<path d="M15.7588 6.54338L14.3163 5.07693C14.2679 5.02768 14.2021 5 14.1335 5C14.0648 5 13.999 5.02768 13.9506 5.07693L7.85821 11.257C7.80974 11.3062 7.74394 11.3339 7.67531 11.3339C7.60669 11.3339 7.54088 11.3062 7.49242 11.257L6.04993 9.79051C6.00146 9.74125 5.93566 9.71357 5.86703 9.71357C5.79841 9.71357 5.7326 9.74125 5.68414 9.79051L4.24165 11.257C4.1408 11.3592 4.1408 11.525 4.24165 11.6272L7.49242 14.9231C7.54088 14.9723 7.60669 15 7.67531 15C7.74394 15 7.80974 14.9723 7.85821 14.9231L15.7588 6.90999C15.8573 6.80817 15.8573 6.6452 15.7588 6.54338Z" fill="white"/>
</svg>
