<svg width="24" height="24" viewBox="0 0 24 24" fill="none" xmlns="http://www.w3.org/2000/svg">
<path fill-rule="evenodd" clip-rule="evenodd" d="M20.2506 15.7902L22.1052 7.44433C22.2505 6.79043 21.5309 6.28853 20.9675 6.65075L17.3075 9.00361C16.9554 9.22994 16.4863 9.12431 16.2651 8.76895L12.6374 2.93861C12.3439 2.46692 11.6573 2.46691 11.3638 2.93861L7.73598 8.76896C7.51487 9.12432 7.04569 9.22994 6.69362 9.00361L3.03363 6.65075C2.47017 6.28852 1.75061 6.79043 1.89592 7.44433L3.75055 15.7902H20.2506ZM19.7506 18.0402H4.25055L4.60901 19.6533C4.83778 20.6828 5.75086 21.4152 6.80543 21.4152H17.1957C18.2503 21.4152 19.1633 20.6828 19.3921 19.6533L19.7506 18.0402Z" fill="#17171A"/>
</svg>
