<svg width="24" height="24" viewBox="0 0 24 24" fill="none" xmlns="http://www.w3.org/2000/svg">
<path d="M8.71406 12.0002C8.71406 13.8166 10.1836 15.2862 12 15.2862C13.8164 15.2862 15.2859 13.8166 15.2859 12.0002C15.2859 10.1838 13.8164 8.7143 12 8.7143C10.1836 8.7143 8.71406 10.1815 8.71406 12.0002ZM21.0937 8.49398L15.6023 8.77758C17.093 10.519 17.1164 13.0315 15.8625 14.958L11.4562 21.7362C13.2844 21.8346 15.1687 21.4338 16.875 20.4424C21.0937 18.0049 22.8047 12.8932 21.0937 8.49398ZM7.50703 13.8729L3.83907 6.65883C2.80019 8.2464 2.24786 10.103 2.25001 12.0002C2.25001 16.8752 5.81953 20.9135 10.4859 21.6284L12.9914 16.7205C10.7273 17.1471 8.54062 15.9049 7.50703 13.8729ZM12.6281 7.18148L20.7 7.6057C19.875 5.96977 18.5765 4.54711 16.8703 3.5557C15.3258 2.66274 13.6289 2.23852 11.9648 2.25024C9.09375 2.26195 6.28828 3.54399 4.41563 5.87133L7.42031 10.4862C8.17031 8.33226 10.3453 7.04789 12.6281 7.18148Z" fill="#17171A"/>
</svg>
