<svg width="24" height="24" viewBox="0 0 24 24" fill="none" xmlns="http://www.w3.org/2000/svg">
<path d="M10.7071 6.79289C10.3166 6.40237 9.68342 6.40237 9.29289 6.79289C8.90237 7.18342 8.90237 7.81658 9.29289 8.20711L10.7071 6.79289ZM14.5 12L15.2071 12.7071C15.5976 12.3166 15.5976 11.6834 15.2071 11.2929L14.5 12ZM9.29289 15.7929C8.90237 16.1834 8.90237 16.8166 9.29289 17.2071C9.68342 17.5976 10.3166 17.5976 10.7071 17.2071L9.29289 15.7929ZM9.29289 8.20711L13.7929 12.7071L15.2071 11.2929L10.7071 6.79289L9.29289 8.20711ZM13.7929 11.2929L9.29289 15.7929L10.7071 17.2071L15.2071 12.7071L13.7929 11.2929Z" fill="#17171A"/>
</svg>
